<svg id="Layer_1" data-name="Layer 1" xmlns="http://www.w3.org/2000/svg" viewBox="0 0 368.78 91.63"><defs><style>.cls-header-logo{fill:#008768;}</style></defs><path class="cls-header-logo" d="M360.75,79a5.26,5.26,0,1,1-5,5.25,5.13,5.13,0,0,1,5-5.25m0-.75a6,6,0,1,0,6,6,6,6,0,0,0-6-6Zm.87,6.13a1.63,1.63,0,0,0,1.31-1.57c0-1.1-.95-1.56-2.31-1.56h-1.74v6h1V84.55h.8l1.26,2c.4.63.47.67,1,.67h.51v-.06Zm-1.08-.1h-.68V81.52h.61c1,0,1.41.38,1.41,1.37S361.6,84.23,360.54,84.23Z"/><rect class="cls-header-logo" x="79.98" y="18.2" width="22.15" height="72"/><path class="cls-header-logo" d="M223.42,83c-6.51,0-9.61-3.91-9.61-10.59V24.2H231.4v-6H213.81V.2H192.53l-1,18h-9.44v6h9.44V71.63c0,12.22,7,20.19,21.34,20.19,10.75,0,17.11-4.39,19.71-10.25l-1-1.14A13.43,13.43,0,0,1,223.42,83Z"/><path class="cls-header-logo" d="M269.7,16.57c-23.62,0-38.61,16.45-38.61,38,0,21.33,14,37.29,38.12,37.29,24.6,0,38.6-16.44,38.6-37.95C307.81,32.54,293.15,16.57,269.7,16.57Zm-.16,70.05C257.64,86.62,256,77,256,54c0-22.64,1.62-32.42,13.35-32.42,11.89,0,13.52,9.78,13.52,32.74C282.89,76.84,281.43,86.62,269.54,86.62Z"/><path class="cls-header-logo" d="M338.81,30.58l-.49-12.38h-21.5v72H339V32.54h0a14.3,14.3,0,0,1,4.11-.66c3.95,0,8.55,1.63,22.36,8.15l1.31-.49V19.34A14.57,14.57,0,0,0,358,16.57C351.79,16.57,344.56,20.48,338.81,30.58Z"/><path class="cls-header-logo" d="M153.35,81.57l2.55,8.63h18.95V34.82c0-12.22-9.61-18.25-25.41-18.25-10.59,0-23.62,2.93-32.58,5.87l-1,12.54,1.31.65c16.94-11.4,22-14,27.2-14,6,0,8.47,3.1,8.47,9.61v15c-25.08,5.21-40.4,9-40.4,26.06,0,11.73,7.82,19.55,20.37,19.55C142.44,91.83,149.6,87.27,153.35,81.57ZM134.29,68.21c0-11.08,3.75-13.85,18.57-16.94V79a14.29,14.29,0,0,1-9.45,3.1C137.06,82.06,134.29,78.47,134.29,68.21Z"/><circle class="cls-header-logo" cx="57.25" cy="30.2" r="13.5"/><polygon class="cls-header-logo" points="42.39 90.2 49.44 74.37 24.43 18.2 0.75 18.2 32.81 90.2 42.39 90.2"/></svg>
